<?xml version="1.0" encoding="UTF-8"?>
<svg id="Layer_1" xmlns="http://www.w3.org/2000/svg" version="1.1" viewBox="0 0 1058.5 384">
  <!-- Generator: Adobe Illustrator 29.0.1, SVG Export Plug-In . SVG Version: 2.1.0 Build 192)  -->
  <path d="M391.7,99.3l-165.3,61.8L61.7,98.8l64.1,71.9,136.9,55.6c.8,1.1-14.5,18.8-16.5,21-5,5.5-10.4,11.1-15.5,16.5s-1.3,1.9-3,1.5c-1.3-4.3,2.3-16.1-.4-19l-77.6-47,76.6,85.9,64.3-69.4-135-44.5,66.5,10,110.8-17.2,58.7-64.8ZM499.7,164.3v58h63v-12h-47v-13s43,0,43,0v-10h-43v-12s46,0,46,0v-12s-62,1-62,1ZM634.7,203.3l-38-38.5-16.3-1.4-1.7,1.3v57.5h15v-39l3,1.5,36.5,37.5h16.5v-58h-15v39ZM666.2,176.3c6.3.8,14-.6,20.5,0v46h16v-46h23.5c2.9-2.9,1-8.1,1.5-12-13.2-.2-26.4.2-39.5,0-3.5,0-24.6-2.9-25.5.6v9.8c.1.4,3.1,1.6,3.6,1.6ZM755.7,164.3l-14.5-.8-1.5,1.3v56l1.5,1.5h14.5v-58ZM829.7,203.3l-38-38.5-18-.5v58h15v-40l39.5,40h16.5v-58h-15v39ZM862.7,164.3v58h62v-12h-47v-11.9c.1,0,43-1.1,43-1.1v-10h-43v-11s47-1,47-1l-1.1-10.9h-60.9ZM955.7,164.3c-5.4-1.1-9.6-1.1-15,0v58h56v-12h-39.5l-1.5-1.5v-44.5ZM480.7,164.3h-52.5c-3.3,0-9.8,5.8-10.8,9.2s-1.3,14.3,1.3,18.3c7.6,11.7,35,4.3,47.3,6.7,4.7,1.4,2.8,11.8.2,11.8h-48.5v12h53.5c.8,0,7-3.1,8-4,5.8-4.9,6.4-20.4,2-26.1-7.4-9.6-32.9-2.6-44.6-5.4s-7.2-6.7-3.5-9.7,30.9-.5,37.1-.9,6.9-1.6,10.5-1v-11Z"/>
</svg>